<svg width="65" height="19" viewBox="0 0 65 19" fill="none" xmlns="http://www.w3.org/2000/svg">
<path d="M26.1379 13.6815C26.8743 14.1533 27.7917 14.403 28.7885 14.403C30.3995 14.403 31.4002 13.6426 31.4002 12.4186V12.4005C31.4002 11.2421 30.4328 10.805 28.98 10.5048C28.08 10.3106 27.7601 10.1765 27.7601 9.80968V9.79153C27.7601 9.56624 27.957 9.30283 28.5123 9.30283C29.0032 9.30283 29.5323 9.44516 30.0447 9.71401C30.1333 9.76099 30.237 9.77525 30.3359 9.75406C30.4348 9.73287 30.5221 9.67771 30.5809 9.59916L30.9463 9.10838C30.9791 9.06459 31.002 9.01485 31.0136 8.96228C31.0252 8.9097 31.0252 8.85541 31.0138 8.80281C31.0023 8.75021 30.9795 8.70042 30.9469 8.65655C30.9143 8.61269 30.8725 8.57569 30.8242 8.54786C30.1854 8.1836 29.4447 8.00653 28.5605 8.00653C27.0668 8.00653 26.0632 8.78923 26.0632 9.95461V9.97275C26.0632 11.2512 27.1726 11.596 28.5125 11.8866C29.4251 12.0875 29.7033 12.2478 29.7033 12.5726V12.5905C29.7033 12.746 29.6214 13.1064 28.8559 13.1064C28.2071 13.1064 27.5828 12.927 27.0013 12.5731C26.9172 12.5221 26.8163 12.5018 26.7176 12.5161C26.6189 12.5304 26.529 12.5783 26.4646 12.6509L26.0604 13.11C26.0231 13.1524 25.9956 13.2018 25.9796 13.2549C25.9636 13.3081 25.9596 13.3638 25.9677 13.4186C25.9749 13.4713 25.9937 13.5221 26.0231 13.5674C26.0524 13.6127 26.0915 13.6516 26.1379 13.6815Z" fill="white"/>
<path d="M35.1698 8.11414C34.8312 8.11414 34.5065 8.242 34.2671 8.46959C34.0277 8.69718 33.8932 9.00586 33.8932 9.32773V13.9024C33.8933 14.006 33.9366 14.1054 34.0137 14.1786C34.0909 14.2519 34.1954 14.2931 34.3045 14.2931H35.1698C35.2789 14.2931 35.3834 14.2519 35.4605 14.1786C35.5377 14.1054 35.581 14.006 35.5811 13.9024V8.5051C35.5811 8.40141 35.5378 8.30197 35.4606 8.22865C35.3835 8.15533 35.2789 8.11414 35.1698 8.11414Z" fill="white"/>
<path d="M43.8802 8.63059C43.2197 8.19166 42.4893 7.98737 41.5814 7.98737C39.5818 7.98737 38.0739 9.37 38.0739 11.2037V11.2219C38.0739 13.0748 39.5651 14.4198 41.6193 14.4198C42.5957 14.4198 43.4561 14.1445 44.25 13.5778C44.2894 13.5492 44.3213 13.5123 44.3432 13.4701C44.3651 13.4279 44.3764 13.3814 44.3763 13.3343V11.3803C44.3763 11.3081 44.3461 11.2389 44.2924 11.1878C44.2387 11.1367 44.1659 11.1081 44.0899 11.1081C43.9269 11.108 43.7654 11.1385 43.6147 11.1978C43.464 11.2572 43.3271 11.3441 43.2117 11.4537C43.0964 11.5633 43.0049 11.6935 42.9425 11.8367C42.8801 11.9799 42.8479 12.1334 42.8479 12.2885V12.7691L42.8095 12.7933C42.5114 12.9789 42.147 13.0691 41.6957 13.0691C40.5971 13.0691 39.7999 12.296 39.7999 11.2307V11.2128C39.7999 10.1921 40.5865 9.39255 41.5907 9.39255C42.0779 9.38652 42.5548 9.52588 42.9543 9.79103C43.0207 9.83433 43.1016 9.85256 43.1813 9.84215C43.2611 9.83175 43.3339 9.79346 43.3855 9.73477L43.9539 9.08662C43.9868 9.04912 44.0099 9.00462 44.021 8.95688C44.0321 8.90914 44.0309 8.85956 44.0177 8.81233C43.9961 8.73809 43.9474 8.67363 43.8802 8.63059Z" fill="white"/>
<path d="M53.7884 8.62306C53.7883 8.48816 53.7319 8.35879 53.6316 8.26337C53.5312 8.16795 53.3952 8.11428 53.2533 8.11414H52.2665C52.1751 8.11384 52.0852 8.13594 52.0054 8.17831C51.9257 8.22068 51.8587 8.28189 51.8111 8.35603L50.3288 10.6424L48.8468 8.35603C48.7991 8.28189 48.7321 8.22068 48.6523 8.17831C48.5725 8.13595 48.4825 8.11384 48.3911 8.11414H47.4044C47.2624 8.11428 47.1264 8.16795 47.0261 8.26337C46.9257 8.35879 46.8693 8.48816 46.8693 8.62306V13.9024C46.8694 14.0059 46.9128 14.1052 46.9898 14.1785C47.0668 14.2517 47.1713 14.2929 47.2803 14.2931H48.0984C48.2074 14.2929 48.3119 14.2517 48.389 14.1785C48.4661 14.1053 48.5095 14.006 48.5097 13.9024V10.4801L49.9584 12.569C49.9958 12.6238 50.0471 12.6687 50.1075 12.6997C50.1679 12.7307 50.2356 12.7467 50.3043 12.7463C50.3728 12.7468 50.4403 12.7309 50.5007 12.7001C50.5611 12.6693 50.6123 12.6246 50.6498 12.57L52.1193 10.4633V13.9024C52.1195 14.006 52.1629 14.1053 52.24 14.1785C52.3171 14.2517 52.4216 14.2929 52.5305 14.2931H53.376C53.485 14.2929 53.5894 14.2517 53.6665 14.1785C53.7435 14.1052 53.7868 14.0059 53.787 13.9024L53.7884 8.62306Z" fill="white"/>
<path d="M58.0192 13.1609H60.7069L61.0887 14.0499C61.1194 14.1221 61.1722 14.1839 61.2403 14.2273C61.3084 14.2707 61.3886 14.2936 61.4705 14.2931H62.3705C62.4384 14.2931 62.5052 14.2772 62.565 14.2467C62.6249 14.2162 62.6758 14.1721 62.7133 14.1184C62.7508 14.0646 62.7738 14.0028 62.78 13.9386C62.7863 13.8744 62.7758 13.8096 62.7494 13.7502L60.3597 8.37965C60.3189 8.2874 60.2503 8.20866 60.1626 8.15331C60.0749 8.09796 59.9719 8.06847 59.8666 8.06854H58.9074C58.8022 8.06847 58.6992 8.09796 58.6115 8.15331C58.5238 8.20866 58.4552 8.2874 58.4144 8.37965L56.0264 13.7502C55.9999 13.8096 55.9894 13.8744 55.9957 13.9386C56.002 14.0028 56.0249 14.0646 56.0624 14.1184C56.0999 14.1721 56.1509 14.2162 56.2107 14.2467C56.2705 14.2772 56.3373 14.2931 56.4052 14.2931H57.2643C57.3465 14.2934 57.4269 14.2701 57.495 14.2263C57.5631 14.1825 57.6158 14.1202 57.6461 14.0476L58.0192 13.1609ZM59.3899 9.53595L60.348 11.9548H58.398L59.3899 9.53595Z" fill="white"/>
<path d="M11.3237 11.9465L14.2249 10.5465L16.5677 11.4057V8.81158L17.4019 8.75766V12.9787L14.2162 11.763L10.2 13.8721V9.31818L11.3226 9.21447L11.3237 11.9465ZM20.5558 7.97495V16.3363C20.5557 16.4986 20.4931 16.6552 20.3798 16.7765C20.2665 16.8978 20.1102 16.9754 19.9408 16.9946L19.1771 17.0807C18.982 17.1027 18.7843 17.0775 18.6022 17.0073L14.1936 15.5064L9.42084 18.251C9.2971 18.322 9.15936 18.3681 9.01612 18.3865L7.73894 18.5517C7.35134 18.6018 6.95674 18.5612 6.58939 18.4335L0.988663 16.4867C0.756922 16.4065 0.556743 16.2604 0.415264 16.0684C0.273786 15.8763 0.197851 15.6476 0.197754 15.4131V7.4637C0.197849 7.0812 0.344433 6.71183 0.610117 6.42458L1.82839 5.10806V3.02777C1.82839 2.86418 1.93503 2.72781 2.07739 2.69281H2.0793C2.1021 2.68712 2.12555 2.68416 2.14912 2.68399L3.0993 2.53673C3.16748 2.52823 3.23617 2.52398 3.30494 2.52403L4.78557 2.55436L6.38648 1.34284C6.62177 1.16488 6.91171 1.06475 7.2123 1.05766L13.6244 0.905991C13.8476 0.900252 14.0695 0.940813 14.2746 1.02485C14.4796 1.10889 14.663 1.23439 14.8118 1.39262L20.2217 7.14299C20.4368 7.37184 20.5558 7.66802 20.5558 7.97495ZM18.8804 8.39755L14.1028 3.65466L8.37548 8.9464V16.382L14.1936 13.2693L18.8804 14.949V8.39755Z" fill="white"/>
<path d="M63.3851 7.24799V7.42817H63.0644V8.39262H62.8233V7.42817H62.5028V7.24799H63.3851Z" fill="white"/>
<path d="M64.872 7.24799V8.39262H64.6306V7.6475L64.3091 8.39262H64.1264L63.8026 7.6488V8.39262H63.5613V7.24928H63.834L64.2158 8.09939L64.5976 7.24928L64.872 7.24799Z" fill="white"/>
</svg>
